
***** The.Invention.of.Lying 2009.DVDRiP.x264.AC3(5.1).Multisub.mkv-Zen_Bud ****


Format                           : Matroska
File size                        : 1.06 GiB
Duration                         : 1h 35mn
Overall bit rate                 : 1 586 Kbps
Writing application              : HandBrake svn3506
Writing library                  : libmkv 0.6.4.1

Video

Format                           : AVC
Duration                         : 1h 35mn
Bit rate                         : 1 170 Kbps
Width                            : 720 pixels
Height                           : 552 pixels
Display aspect ratio             : 1.853
Stream size                      : 801 MiB (74%)
Writing library                  : x264 core 104        

Audio

Format                           : AC-3
Duration                         : 1h 35mn
Bit rate                         : 384 Kbps
Channel(s)                       : 6 channels
Channel positions                : Front: L C R, Side: L R, LFE
Sampling rate                    : 48.0 KHz
Bit depth                        : 16 bits
Stream size                      : 263 MiB (24%)
Language                         : English

Text #1
Language                         : English

Text #2
Language                         : German

Text #3
Language                         : Turkish

Text #4
Language                         : Arabic

Text #5
Language                         : Danish

Text #6
Language                         : Finnish

Text #7
Language                         : Icelandic

Text #8
Language                         : Norwegian

Text #9
Language                         : Swedish

Menu
00:00:00.000                     : Chapter  1
00:04:23.760                     : Chapter  2


